<svg id="Layer_1" data-name="Layer 1" xmlns="http://www.w3.org/2000/svg" viewBox="0 0 2033 957"><defs><style>.cls-1{fill:#d5aee4;opacity:0.3;isolation:isolate;}.cls-2{fill:#fff1da;}.cls-3{fill:none;}</style></defs><title>Decoref</title><g id="Decore"><path class="cls-1" d="M682.94,231.43c0,137.21-107.21,248.43-239.47,248.43S204,368.64,204,231.43C204,126.16,267.12,36.18,356.24,0H530.7C619.82,36.18,682.94,126.16,682.94,231.43Z" transform="translate(-204 133)"/><path class="cls-2" d="M2072.31,0V766.42c-84.28-.11-243-8.91-311-44.58-90.5-47.5-49.5-124-124.5-164s-32-145.5-58-185.5-146-21.5-196.5-107.5C1343,197.9,1364.24,63.7,1380.92,0Z" transform="translate(-204 133)"/></g><path class="cls-3" d="M2203-113V0H2087l-25.22-106.16-679.5,101q-.69,2.49-1.39,5.16H1313V-113Z" transform="translate(-204 133)"/><path class="cls-3" d="M2126.31,165.34l-38.5,601c-4.82.06-10,.09-15.5.08V0H2087Z" transform="translate(-204 133)"/><path class="cls-3" d="M2237-33V824H2072.31V766.42c5.5,0,10.68,0,15.5-.08l38.5-601L2087,0h-14.72V-33Z" transform="translate(-204 133)"/><path class="cls-3" d="M530.7,0H356.24A232.3,232.3,0,0,1,530.7,0Z" transform="translate(-204 133)"/><path class="cls-3" d="M647-133V0H530.7A232.3,232.3,0,0,0,356.24,0H204V-133Z" transform="translate(-204 133)"/></svg>